<svg width="14" height="12" viewBox="0 0 14 12" fill="none" xmlns="http://www.w3.org/2000/svg">
<symbol id="icon" viewBox="0 0 14 12">
<path d="M3.13008 0.0775146C1.42531 0.0775146 0 1.50336 0 3.20759V8.79413C0 10.4978 1.42585 11.9237 3.13008 11.9237H10.8705C12.5742 11.9237 14 10.4978 14 8.79359V3.20759C14 1.5039 12.5742 0.0775146 10.8699 0.0775146H3.13008ZM3.13008 1.15444H10.8705C11.9662 1.15444 12.9231 2.11128 12.9231 3.20759V3.84674H9.69231C9.39346 3.84674 9.15385 3.60713 9.15385 3.30828C9.15385 3.00944 9.39346 2.76982 9.69231 2.76982C9.83512 2.76982 9.97208 2.71309 10.0731 2.61211C10.174 2.51113 10.2308 2.37417 10.2308 2.23136C10.2308 2.08855 10.174 1.95159 10.0731 1.85061C9.97208 1.74963 9.83512 1.6929 9.69231 1.6929C8.80654 1.6929 8.07692 2.42251 8.07692 3.30828C8.07692 4.00398 8.53139 4.59736 9.15385 4.82298V7.49805C8.50877 7.93636 8.07692 8.6719 8.07692 9.50059C8.07692 9.99759 8.23469 10.4596 8.49746 10.8467H5.50308C5.77527 10.4505 5.92164 9.98133 5.92308 9.50059C5.92308 8.67244 5.49123 7.93636 4.84615 7.49805V4.82244C5.46862 4.59736 5.92308 4.00398 5.92308 3.30828C5.92308 2.42251 5.19346 1.6929 4.30769 1.6929H3.23077C3.21391 1.69211 3.19702 1.69211 3.18015 1.6929C3.16347 1.69212 3.14676 1.69212 3.13008 1.6929C2.98727 1.70625 2.85561 1.77579 2.76407 1.88621C2.67253 1.99663 2.62861 2.1389 2.64196 2.28171C2.65531 2.42452 2.72485 2.55617 2.83527 2.64771C2.9457 2.73925 3.08796 2.78317 3.23077 2.76982H4.30769C4.60654 2.76982 4.84615 3.00944 4.84615 3.30828C4.84615 3.60713 4.60654 3.84674 4.30769 3.84674H1.07692V3.20705C1.07692 2.11128 2.03377 1.15444 3.13008 1.15444ZM1.07692 4.92367H3.76923V7.07751H1.07692V4.92367ZM10.2308 4.92367H12.9231V7.07751H10.2308V4.92367ZM1.07692 8.15444H3.5C4.221 8.15444 4.84615 8.77959 4.84615 9.50059C4.84615 10.2216 4.221 10.8467 3.5 10.8467H3.12954C2.03377 10.8467 1.07692 9.8899 1.07692 8.79359V8.15444ZM10.5 8.15444H12.9231V8.79413C12.9231 9.8899 11.9662 10.8467 10.8699 10.8467H10.5C9.779 10.8467 9.15385 10.2216 9.15385 9.50059C9.15385 8.77959 9.779 8.15444 10.5 8.15444Z" fill="white"/>
</symbol>
</svg>
